<svg width="65" height="64" viewBox="0 0 65 64" fill="none" xmlns="http://www.w3.org/2000/svg">
<path opacity="0.5" d="M46.9283 2.07105C53.228 -4.2286 63.9994 0.233078 63.9994 9.14213L63.9994 28C63.9994 33.5228 59.5222 38 53.9994 38L35.1415 38C26.2325 38 21.7708 27.2286 28.0704 20.9289L46.9283 2.07105Z" fill="#15803D"/>
<path d="M53.6667 53.3334L11 40.0001M53.6667 53.3334H11V40.0001L53.6667 53.3334ZM53.6667 53.3334V32.0001C53.6667 20.218 44.1155 10.6667 32.3333 10.6667C30.2152 10.6667 28.1693 10.9754 26.2381 11.5502C17.4259 14.1728 11 22.336 11 32.0001V40.0001L53.6667 53.3334Z" stroke="#78350F" stroke-width="1.5" stroke-linecap="round" stroke-linejoin="round"/>
<path d="M43 24V26.6667" stroke="#78350F" stroke-width="1.5" stroke-linecap="round"/>
<path d="M32.3333 21.3333V23.9999" stroke="#78350F" stroke-width="1.5" stroke-linecap="round"/>
<path d="M21.6667 18.6667V21.3334" stroke="#78350F" stroke-width="1.5" stroke-linecap="round"/>
</svg>
