<svg width="85" height="64" viewBox="0 0 85 64" fill="none" xmlns="http://www.w3.org/2000/svg">
<path opacity="0.5" d="M31.0711 17.4973C24.7714 11.1977 29.2331 0.42627 38.1421 0.42627H74.7107C83.6197 0.42627 88.0814 11.1977 81.7817 17.4973L63.4975 35.7816C59.5922 39.6869 53.2606 39.6869 49.3553 35.7816L31.0711 17.4973Z" fill="#0369A1"/>
<path d="M17.9875 10.6667H46.1685C46.1685 10.6667 43.8202 46.019 32.0781 46.019C26.342 46.019 22.8476 37.5827 20.7736 28.9523C18.6019 19.9159 17.9875 10.6667 17.9875 10.6667Z" stroke="#78350F" stroke-width="1.5" stroke-linecap="round" stroke-linejoin="round"/>
<path d="M46.1685 10.6667C46.1685 10.6667 48.6251 8.04623 50.6667 7.99999C54.6667 7.90943 55.4061 10.6667 55.4061 10.6667C56.1891 12.2921 56.8152 16.5181 53.0579 20.4191C49.3003 24.32 45.0941 27.7333 43.3824 28.9523" stroke="#78350F" stroke-width="1.5" stroke-linecap="round" stroke-linejoin="round"/>
<path d="M17.9874 10.6667C17.9874 10.6667 15.4279 8.01637 13.3332 8.00002C9.33321 7.9688 8.59371 10.6667 8.59371 10.6667C7.81089 12.2921 7.18465 16.5181 10.9421 20.4191C14.6996 24.32 19.062 27.7333 20.7734 28.9525" stroke="#78350F" stroke-width="1.5" stroke-linecap="round" stroke-linejoin="round"/>
<path d="M22.6843 53.3334C22.6843 48.4572 32.0779 46.019 32.0779 46.019C32.0779 46.019 41.4717 48.4572 41.4717 53.3334H22.6843Z" stroke="#78350F" stroke-width="1.5" stroke-linecap="round" stroke-linejoin="round"/>
</svg>
