<svg width="19" height="19" viewBox="0 0 19 19" fill="none" xmlns="http://www.w3.org/2000/svg">
<path d="M10.308 13.471L10.384 12.407L11.311 11.878C12.2011 11.3622 13.0188 10.7307 13.743 10C16.383 7.359 17.189 4.254 16.218 3.282C15.246 2.312 12.141 3.116 9.49999 5.757C8.73999 6.517 8.10299 7.347 7.62199 8.189L7.09199 9.116L6.02899 9.192C5.15665 9.25318 4.32886 9.60046 3.67399 10.18C4.92394 10.73 6.06037 11.5083 7.02499 12.475C8.00499 13.455 8.77699 14.592 9.31999 15.826C9.89952 15.1711 10.2468 14.3433 10.308 13.471ZM7.33499 16.3C7.13388 16.5735 6.91224 16.8312 6.67199 17.071C5.49999 18.243 3.73199 18.596 1.36799 18.131C0.90399 15.768 1.25799 14 2.42799 12.828C2.67599 12.582 2.93399 12.36 3.19999 12.165C2.3802 11.7645 1.50413 11.4914 0.60199 11.355C0.892427 10.4433 1.3976 9.61475 2.07499 8.939C3.09339 7.91806 4.44655 7.29972 5.88499 7.198C6.48877 6.15319 7.22857 5.19314 8.08499 4.343C11.405 1.023 15.679 -0.0840015 17.632 1.868C19.584 3.821 18.476 8.095 15.157 11.414C14.3069 12.2704 13.3468 13.0102 12.302 13.614C12.2003 15.0524 11.5819 16.4056 10.561 17.424C9.88581 18.1023 9.05707 18.608 8.14499 18.898C8.00861 17.9959 7.73547 17.1198 7.33499 16.3ZM5.60999 13.89C5.44896 13.7286 5.26741 13.5891 5.06999 13.475C4.63799 13.625 4.12999 13.955 3.66499 14.419C3.44599 14.639 3.17799 15.378 3.17499 16.324C4.12099 16.321 4.86299 16.05 5.07999 15.834C5.54499 15.368 5.87499 14.861 6.02399 14.429C5.91024 14.2316 5.77105 14.0501 5.60999 13.889V13.89ZM13.388 6.11C13.2903 6.01827 13.2121 5.90785 13.1579 5.78529C13.1037 5.66273 13.0747 5.53054 13.0727 5.39656C13.0706 5.26258 13.0954 5.12955 13.1458 5.00537C13.1961 4.88119 13.2709 4.76839 13.3657 4.67368C13.4605 4.57896 13.5733 4.50426 13.6975 4.45401C13.8217 4.40376 13.9548 4.37899 14.0888 4.38116C14.2228 4.38334 14.3549 4.41242 14.4774 4.46667C14.6 4.52093 14.7103 4.59926 14.802 4.697C14.9744 4.88716 15.0671 5.13635 15.0609 5.39297C15.0547 5.64959 14.95 5.89399 14.7685 6.07557C14.5871 6.25715 14.3428 6.36199 14.0861 6.3684C13.8295 6.37481 13.5803 6.28229 13.39 6.11H13.388Z" fill="#0F172A"/>
</svg>
