<svg width="14" height="10" viewBox="0 0 14 10" fill="none" xmlns="http://www.w3.org/2000/svg">
<path d="M5.48599 9.73002C5.35472 9.73028 5.2247 9.70463 5.10337 9.65452C4.98204 9.60441 4.87181 9.53083 4.77899 9.43802L0.536988 5.19502C0.441415 5.10284 0.365157 4.99255 0.312663 4.87058C0.26017 4.74861 0.232492 4.61741 0.231245 4.48464C0.229999 4.35186 0.255208 4.22016 0.305401 4.09723C0.355595 3.9743 0.429769 3.8626 0.523594 3.76864C0.61742 3.67468 0.729018 3.60035 0.851878 3.54998C0.974737 3.49961 1.1064 3.47422 1.23918 3.47528C1.37196 3.47634 1.50319 3.50383 1.62523 3.55615C1.74727 3.60847 1.85767 3.68457 1.94999 3.78002L5.48499 7.31502L11.85 0.952016C12.0375 0.764375 12.2919 0.658907 12.5571 0.658814C12.8224 0.65872 13.0768 0.764008 13.2645 0.951516C13.4521 1.13902 13.5576 1.39339 13.5577 1.65866C13.5578 1.92393 13.4525 2.17838 13.265 2.36602L6.19299 9.43802C6.10017 9.53083 5.98993 9.60441 5.86861 9.65452C5.74728 9.70463 5.61725 9.73028 5.48599 9.73002Z" fill="#15803D"/>
</svg>
