<svg width="131" height="30" viewBox="0 0 131 30" fill="none" xmlns="http://www.w3.org/2000/svg">
<path d="M13.4 4.65002V0.400024H0V29.6H13.4V25.35C10.655 25.35 8.0224 24.2595 6.08144 22.3185C4.14044 20.3775 3.05 17.745 3.05 15C3.05 12.255 4.14044 9.62243 6.08144 7.68147C8.0224 5.74047 10.655 4.65002 13.4 4.65002Z" fill="#475569"/>
<path d="M13.3999 4.65002V25.35C16.1449 25.35 18.7775 24.2595 20.7185 22.3185C22.6595 20.3775 23.7499 17.745 23.7499 15C23.7499 12.255 22.6595 9.62243 20.7185 7.68147C18.7775 5.74047 16.1449 4.65002 13.3999 4.65002Z" fill="#475569"/>
<path d="M36.4375 4.98828V23H33.0625V4.98828H36.4375ZM44.4297 10.3203L38.9219 16.6016L35.9688 19.5898L34.7383 17.1523L37.082 14.1758L40.375 10.3203H44.4297ZM40.9258 23L37.1758 17.1406L39.5078 15.1016L44.8164 23H40.9258ZM45.3438 16.7891V16.543C45.3438 15.6133 45.4766 14.7578 45.7422 13.9766C46.0078 13.1875 46.3945 12.5039 46.9023 11.9258C47.4102 11.3477 48.0352 10.8984 48.7773 10.5781C49.5195 10.25 50.3711 10.0859 51.332 10.0859C52.293 10.0859 53.1484 10.25 53.8984 10.5781C54.6484 10.8984 55.2773 11.3477 55.7852 11.9258C56.3008 12.5039 56.6914 13.1875 56.957 13.9766C57.2227 14.7578 57.3555 15.6133 57.3555 16.543V16.7891C57.3555 17.7109 57.2227 18.5664 56.957 19.3555C56.6914 20.1367 56.3008 20.8203 55.7852 21.4062C55.2773 21.9844 54.6523 22.4336 53.9102 22.7539C53.168 23.0742 52.3164 23.2344 51.3555 23.2344C50.3945 23.2344 49.5391 23.0742 48.7891 22.7539C48.0469 22.4336 47.418 21.9844 46.9023 21.4062C46.3945 20.8203 46.0078 20.1367 45.7422 19.3555C45.4766 18.5664 45.3438 17.7109 45.3438 16.7891ZM48.7188 16.543V16.7891C48.7188 17.3203 48.7656 17.8164 48.8594 18.2773C48.9531 18.7383 49.1016 19.1445 49.3047 19.4961C49.5156 19.8398 49.7891 20.1094 50.125 20.3047C50.4609 20.5 50.8711 20.5977 51.3555 20.5977C51.8242 20.5977 52.2266 20.5 52.5625 20.3047C52.8984 20.1094 53.168 19.8398 53.3711 19.4961C53.5742 19.1445 53.7227 18.7383 53.8164 18.2773C53.918 17.8164 53.9688 17.3203 53.9688 16.7891V16.543C53.9688 16.0273 53.918 15.543 53.8164 15.0898C53.7227 14.6289 53.5703 14.2227 53.3594 13.8711C53.1562 13.5117 52.8867 13.2305 52.5508 13.0273C52.2148 12.8242 51.8086 12.7227 51.332 12.7227C50.8555 12.7227 50.4492 12.8242 50.1133 13.0273C49.7852 13.2305 49.5156 13.5117 49.3047 13.8711C49.1016 14.2227 48.9531 14.6289 48.8594 15.0898C48.7656 15.543 48.7188 16.0273 48.7188 16.543ZM62.7344 13.0273V23H59.3594V10.3203H62.5234L62.7344 13.0273ZM62.2422 16.2148H61.3281C61.3281 15.2773 61.4492 14.4336 61.6914 13.6836C61.9336 12.9258 62.2734 12.2812 62.7109 11.75C63.1484 11.2109 63.668 10.8008 64.2695 10.5195C64.8789 10.2305 65.5586 10.0859 66.3086 10.0859C66.9023 10.0859 67.4453 10.1719 67.9375 10.3438C68.4297 10.5156 68.8516 10.7891 69.2031 11.1641C69.5625 11.5391 69.8359 12.0352 70.0234 12.6523C70.2188 13.2695 70.3164 14.0234 70.3164 14.9141V23H66.918V14.9023C66.918 14.3398 66.8398 13.9023 66.6836 13.5898C66.5273 13.2773 66.2969 13.0586 65.9922 12.9336C65.6953 12.8008 65.3281 12.7344 64.8906 12.7344C64.4375 12.7344 64.043 12.8242 63.707 13.0039C63.3789 13.1836 63.1055 13.4336 62.8867 13.7539C62.6758 14.0664 62.5156 14.4336 62.4062 14.8555C62.2969 15.2773 62.2422 15.7305 62.2422 16.2148ZM79.0938 10.3203V12.7109H71.7109V10.3203H79.0938ZM73.5391 7.19141H76.9141V19.1797C76.9141 19.5469 76.9609 19.8281 77.0547 20.0234C77.1562 20.2188 77.3047 20.3555 77.5 20.4336C77.6953 20.5039 77.9414 20.5391 78.2383 20.5391C78.4492 20.5391 78.6367 20.5312 78.8008 20.5156C78.9727 20.4922 79.1172 20.4688 79.2344 20.4453L79.2461 22.9297C78.957 23.0234 78.6445 23.0977 78.3086 23.1523C77.9727 23.207 77.6016 23.2344 77.1953 23.2344C76.4531 23.2344 75.8047 23.1133 75.25 22.8711C74.7031 22.6211 74.2812 22.2227 73.9844 21.6758C73.6875 21.1289 73.5391 20.4102 73.5391 19.5195V7.19141ZM84.3906 13.0859V23H81.0156V10.3203H84.1914L84.3906 13.0859ZM88.2109 10.2383L88.1523 13.3672C87.9883 13.3438 87.7891 13.3242 87.5547 13.3086C87.3281 13.2852 87.1211 13.2734 86.9336 13.2734C86.457 13.2734 86.043 13.3359 85.6914 13.4609C85.3477 13.5781 85.0586 13.7539 84.8242 13.9883C84.5977 14.2227 84.4258 14.5078 84.3086 14.8438C84.1992 15.1797 84.1367 15.5625 84.1211 15.9922L83.4414 15.7812C83.4414 14.9609 83.5234 14.207 83.6875 13.5195C83.8516 12.8242 84.0898 12.2188 84.4023 11.7031C84.7227 11.1875 85.1133 10.7891 85.5742 10.5078C86.0352 10.2266 86.5625 10.0859 87.1562 10.0859C87.3438 10.0859 87.5352 10.1016 87.7305 10.1328C87.9258 10.1562 88.0859 10.1914 88.2109 10.2383ZM96.25 20.1406V14.4922C96.25 14.0859 96.1836 13.7383 96.0508 13.4492C95.918 13.1523 95.7109 12.9219 95.4297 12.7578C95.1562 12.5938 94.8008 12.5117 94.3633 12.5117C93.9883 12.5117 93.6641 12.5781 93.3906 12.7109C93.1172 12.8359 92.9062 13.0195 92.7578 13.2617C92.6094 13.4961 92.5352 13.7734 92.5352 14.0938H89.1602C89.1602 13.5547 89.2852 13.043 89.5352 12.5586C89.7852 12.0742 90.1484 11.6484 90.625 11.2812C91.1016 10.9062 91.668 10.6133 92.3242 10.4023C92.9883 10.1914 93.7305 10.0859 94.5508 10.0859C95.5352 10.0859 96.4102 10.25 97.1758 10.5781C97.9414 10.9062 98.543 11.3984 98.9805 12.0547C99.4258 12.7109 99.6484 13.5312 99.6484 14.5156V19.9414C99.6484 20.6367 99.6914 21.207 99.7773 21.6523C99.8633 22.0898 99.9883 22.4727 100.152 22.8008V23H96.7422C96.5781 22.6562 96.4531 22.2266 96.3672 21.7109C96.2891 21.1875 96.25 20.6641 96.25 20.1406ZM96.6953 15.2773L96.7188 17.1875H94.832C94.3867 17.1875 94 17.2383 93.6719 17.3398C93.3438 17.4414 93.0742 17.5859 92.8633 17.7734C92.6523 17.9531 92.4961 18.1641 92.3945 18.4062C92.3008 18.6484 92.2539 18.9141 92.2539 19.2031C92.2539 19.4922 92.3203 19.7539 92.4531 19.9883C92.5859 20.2148 92.7773 20.3945 93.0273 20.5273C93.2773 20.6523 93.5703 20.7148 93.9062 20.7148C94.4141 20.7148 94.8555 20.6133 95.2305 20.4102C95.6055 20.207 95.8945 19.957 96.0977 19.6602C96.3086 19.3633 96.418 19.082 96.4258 18.8164L97.3164 20.2461C97.1914 20.5664 97.0195 20.8984 96.8008 21.2422C96.5898 21.5859 96.3203 21.9102 95.9922 22.2148C95.6641 22.5117 95.2695 22.7578 94.8086 22.9531C94.3477 23.1406 93.8008 23.2344 93.168 23.2344C92.3633 23.2344 91.6328 23.0742 90.9766 22.7539C90.3281 22.4258 89.8125 21.9766 89.4297 21.4062C89.0547 20.8281 88.8672 20.1719 88.8672 19.4375C88.8672 18.7734 88.9922 18.1836 89.2422 17.668C89.4922 17.1523 89.8594 16.7188 90.3438 16.3672C90.8359 16.0078 91.4492 15.7383 92.1836 15.5586C92.918 15.3711 93.7695 15.2773 94.7383 15.2773H96.6953ZM109.105 19.4961C109.105 19.2539 109.035 19.0352 108.895 18.8398C108.754 18.6445 108.492 18.4648 108.109 18.3008C107.734 18.1289 107.191 17.9727 106.48 17.832C105.84 17.6914 105.242 17.5156 104.688 17.3047C104.141 17.0859 103.664 16.8242 103.258 16.5195C102.859 16.2148 102.547 15.8555 102.32 15.4414C102.094 15.0195 101.98 14.5391 101.98 14C101.98 13.4688 102.094 12.9688 102.32 12.5C102.555 12.0312 102.887 11.6172 103.316 11.2578C103.754 10.8906 104.285 10.6055 104.91 10.4023C105.543 10.1914 106.254 10.0859 107.043 10.0859C108.145 10.0859 109.09 10.2617 109.879 10.6133C110.676 10.9648 111.285 11.4492 111.707 12.0664C112.137 12.6758 112.352 13.3711 112.352 14.1523H108.977C108.977 13.8242 108.906 13.5312 108.766 13.2734C108.633 13.0078 108.422 12.8008 108.133 12.6523C107.852 12.4961 107.484 12.418 107.031 12.418C106.656 12.418 106.332 12.4844 106.059 12.6172C105.785 12.7422 105.574 12.9141 105.426 13.1328C105.285 13.3438 105.215 13.5781 105.215 13.8359C105.215 14.0312 105.254 14.207 105.332 14.3633C105.418 14.5117 105.555 14.6484 105.742 14.7734C105.93 14.8984 106.172 15.0156 106.469 15.125C106.773 15.2266 107.148 15.3203 107.594 15.4062C108.508 15.5938 109.324 15.8398 110.043 16.1445C110.762 16.4414 111.332 16.8477 111.754 17.3633C112.176 17.8711 112.387 18.5391 112.387 19.3672C112.387 19.9297 112.262 20.4453 112.012 20.9141C111.762 21.3828 111.402 21.793 110.934 22.1445C110.465 22.4883 109.902 22.7578 109.246 22.9531C108.598 23.1406 107.867 23.2344 107.055 23.2344C105.875 23.2344 104.875 23.0234 104.055 22.6016C103.242 22.1797 102.625 21.6445 102.203 20.9961C101.789 20.3398 101.582 19.668 101.582 18.9805H104.781C104.797 19.4414 104.914 19.8125 105.133 20.0938C105.359 20.375 105.645 20.5781 105.988 20.7031C106.34 20.8281 106.719 20.8906 107.125 20.8906C107.562 20.8906 107.926 20.832 108.215 20.7148C108.504 20.5898 108.723 20.4258 108.871 20.2227C109.027 20.0117 109.105 19.7695 109.105 19.4961ZM120.789 10.3203V12.7109H113.406V10.3203H120.789ZM115.234 7.19141H118.609V19.1797C118.609 19.5469 118.656 19.8281 118.75 20.0234C118.852 20.2188 119 20.3555 119.195 20.4336C119.391 20.5039 119.637 20.5391 119.934 20.5391C120.145 20.5391 120.332 20.5312 120.496 20.5156C120.668 20.4922 120.812 20.4688 120.93 20.4453L120.941 22.9297C120.652 23.0234 120.34 23.0977 120.004 23.1523C119.668 23.207 119.297 23.2344 118.891 23.2344C118.148 23.2344 117.5 23.1133 116.945 22.8711C116.398 22.6211 115.977 22.2227 115.68 21.6758C115.383 21.1289 115.234 20.4102 115.234 19.5195V7.19141ZM126.086 13.0859V23H122.711V10.3203H125.887L126.086 13.0859ZM129.906 10.2383L129.848 13.3672C129.684 13.3438 129.484 13.3242 129.25 13.3086C129.023 13.2852 128.816 13.2734 128.629 13.2734C128.152 13.2734 127.738 13.3359 127.387 13.4609C127.043 13.5781 126.754 13.7539 126.52 13.9883C126.293 14.2227 126.121 14.5078 126.004 14.8438C125.895 15.1797 125.832 15.5625 125.816 15.9922L125.137 15.7812C125.137 14.9609 125.219 14.207 125.383 13.5195C125.547 12.8242 125.785 12.2188 126.098 11.7031C126.418 11.1875 126.809 10.7891 127.27 10.5078C127.73 10.2266 128.258 10.0859 128.852 10.0859C129.039 10.0859 129.23 10.1016 129.426 10.1328C129.621 10.1562 129.781 10.1914 129.906 10.2383Z" fill="#475569"/>
</svg>
